<svg xmlns="http://www.w3.org/2000/svg" viewBox="0 0 523.8 126.61"><defs><style>.cls-1{fill:#fff;}.cls-2,.cls-3{fill:#0cbbe2;}.cls-3{fill-rule:evenodd;}</style></defs><title>Logo-Light</title><g id="Laag_2" data-name="Laag 2"><g id="Layer_1" data-name="Layer 1"><polygon class="cls-1" points="173.96 1.85 173.96 73.14 188.05 73.14 188.05 90.98 150.78 90.98 150.78 1.85 173.96 1.85"/><polygon class="cls-1" points="193.64 1.85 232.29 1.85 232.29 19.7 216.82 19.7 216.82 36.59 231.29 36.59 231.29 53.55 216.82 53.55 216.82 73.14 233.82 73.14 233.82 90.98 193.64 90.98 193.64 1.85"/><path class="cls-1" d="M293.64,34.66H270.48v-8.1c0-5.1-.23-8.26-.67-9.58s-1.47-1.89-3.14-1.89a2.86,2.86,0,0,0-2.91,1.64c-.52,1.09-.78,3.93-.78,8.47V68c0,4,.26,6.61.78,7.9a3,3,0,0,0,3.08,1.89,3.41,3.41,0,0,0,3.45-2.13c.59-1.45.89-4.21.89-8.39V56.69h-4.67V43.13h27.13V91H279.06l-2.14-6.42a16.21,16.21,0,0,1-6,6.22,17,17,0,0,1-8.52,2A22.47,22.47,0,0,1,251.52,90a21.32,21.32,0,0,1-7.74-7,22.4,22.4,0,0,1-3.3-8.78,105.41,105.41,0,0,1-.66-13.79V33.94q0-12.75,1.37-18.54t7.9-10.58C253.44,1.61,259.05,0,266,0s12.42,1.37,16.89,4.17,7.4,6.1,8.74,10,2,9.38,2,16.68Z"/><polygon class="cls-1" points="302.62 1.85 341.27 1.85 341.27 19.7 325.8 19.7 325.8 36.59 340.26 36.59 340.26 53.55 325.8 53.55 325.8 73.14 342.8 73.14 342.8 90.98 302.62 90.98 302.62 1.85"/><polygon class="cls-1" points="401.19 1.85 401.19 90.98 380.88 90.98 368.82 50.46 368.82 90.98 349.45 90.98 349.45 1.85 368.82 1.85 381.82 42 381.82 1.85 401.19 1.85"/><path class="cls-1" d="M521.86,28.85H500.35V22.23c0-3.09-.28-5.06-.81-5.9a3.06,3.06,0,0,0-2.78-1.24,3.51,3.51,0,0,0-3.15,1.68A9.79,9.79,0,0,0,492.54,22a14.75,14.75,0,0,0,1.2,6.73c.76,1.5,3,3.29,6.57,5.42q15.45,9.19,19.47,15.08t4,19c0,6.33-.75,11-2.24,14s-4.35,5.58-8.61,7.59a33.94,33.94,0,0,1-14.84,3q-9.32,0-15.88-3.53c-4.4-2.33-7.28-5.34-8.62-9s-2-8.79-2-15.48V59.05h21.51V69.88c0,3.33.29,5.49.89,6.46a3.63,3.63,0,0,0,3.23,1.41,3.78,3.78,0,0,0,3.44-1.81,10.33,10.33,0,0,0,1.14-5.38c0-5.25-.73-8.69-2.15-10.3S494.56,56,488.8,52.19a111.87,111.87,0,0,1-11.46-8.34,19.36,19.36,0,0,1-4.64-7.15A31.18,31.18,0,0,1,470.86,25c0-6.82.87-11.84,2.62-15a17.62,17.62,0,0,1,8.43-7.37A33.65,33.65,0,0,1,496,0a37.11,37.11,0,0,1,15.39,2.89c4.23,2,7,4.41,8.43,7.38s2,8,2,15Z"/><path class="cls-2" d="M151,99.89h6.8a16.89,16.89,0,0,1,4.88.52,4.84,4.84,0,0,1,2.67,2,9.31,9.31,0,0,1,1,4.94,5.43,5.43,0,0,1-.71,3.21,5,5,0,0,1-2.83,1.36,5.15,5.15,0,0,1,3.19,1.77,6.88,6.88,0,0,1,.83,3.81v2.4a9.51,9.51,0,0,1-.59,3.93,3.38,3.38,0,0,1-1.94,1.77,22.14,22.14,0,0,1-5.42.44H151Zm6.81,4.49v5.82c.3,0,.52,0,.69,0,.66,0,1.09-.15,1.27-.48a8.25,8.25,0,0,0,.27-2.8,5,5,0,0,0-.22-1.73,1.23,1.23,0,0,0-.6-.63,4.72,4.72,0,0,0-1.41-.13m0,9.87v7.33a2.81,2.81,0,0,0,1.84-.47,3.12,3.12,0,0,0,.39-2V116.7a3.68,3.68,0,0,0-.35-2,3.19,3.19,0,0,0-1.88-.4m81.85,1c0,2.65-.06,4.49-.18,5.58a6.58,6.58,0,0,1-1.17,3,6.35,6.35,0,0,1-2.63,2.08,9.59,9.59,0,0,1-3.88.74,10.39,10.39,0,0,1-3.78-.68,6.48,6.48,0,0,1-2.68-2.06,6.14,6.14,0,0,1-1.22-3,54.33,54.33,0,0,1-.2-5.65v-4.45a52,52,0,0,1,.2-5.62,6.24,6.24,0,0,1,3.79-5,9.71,9.71,0,0,1,3.89-.73,9.46,9.46,0,0,1,3.77.69,6,6,0,0,1,2.69,2,6.23,6.23,0,0,1,1.19,3,48.42,48.42,0,0,1,.21,5.66Zm-6.81-8.59a8.62,8.62,0,0,0-.19-2.36.81.81,0,0,0-.83-.48.9.9,0,0,0-.82.4,5.68,5.68,0,0,0-.29,2.44v12.2a11.91,11.91,0,0,0,.19,2.8.81.81,0,0,0,.87.57.85.85,0,0,0,.88-.64,12.81,12.81,0,0,0,.19-2.93Zm78-6.73-2.38,11.55,3.59,14.6h-6.29a85.22,85.22,0,0,1-2.08-9.51c-.16,1.65-.4,3.41-.7,5.26l-.66,4.25h-6.61l2.44-14.6-2.44-11.55h6.57c.12.71.36,1.92.71,3.61.28,1.28.51,2.44.69,3.53l1.46-7.14ZM374.68,126h-6.81V99.89h6.81Zm72.75-26.15V126h-6l-3.53-11.87V126h-5.69V99.89h5.69l3.81,11.79V99.89Zm73.18,9.63h-6.8v-2.37a11.75,11.75,0,0,0-.19-2.81,1,1,0,0,0-1.79-.08,8.74,8.74,0,0,0-.22,2.49V119.3a8.52,8.52,0,0,0,.22,2.32.91.91,0,0,0,.92.57,1,1,0,0,0,1-.64,7.43,7.43,0,0,0,.26-2.45V116h-1.37v-4h8v14h-4.28l-.62-1.88A4.59,4.59,0,0,1,514,126a5.06,5.06,0,0,1-2.5.61,6.84,6.84,0,0,1-5.48-2.89,6.73,6.73,0,0,1-1-2.57,33.16,33.16,0,0,1-.19-4.05v-7.79a26.15,26.15,0,0,1,.4-5.45,5.52,5.52,0,0,1,2.33-3.09,7.91,7.91,0,0,1,4.94-1.41,9.34,9.34,0,0,1,5,1.2A6,6,0,0,1,520,103.5a15.63,15.63,0,0,1,.59,4.89Z"/><path class="cls-1" d="M463.38,16.33a16.08,16.08,0,0,0-3.86-7.86c-2-2.37-5.06-4-9-5.06S439,1.85,427.83,1.85H410.48V91h29.24a63.12,63.12,0,0,0,12.44-.92,16.48,16.48,0,0,0,6.92-3.22A11.76,11.76,0,0,0,463,80.55q1.15-4.08,1.15-16V33.3C464.16,24.83,463.89,19.17,463.38,16.33ZM455,71.72c0,.22-.15.07-.52.15a4.19,4.19,0,0,0-1.23.22,4.28,4.28,0,0,1-2.13.11,5.77,5.77,0,0,0-2.09,0c-.86.19-2.43.41-2.76,0s-.27-1.42-.23-1.9a2.9,2.9,0,0,0-.44-1.56,65,65,0,0,0-3.66-5.62c-1.16-1.42-2-4.58-2.13-6a6.81,6.81,0,0,0-2.17-3.84c-.93-.85-2.57-2.93-2.65-3.79-.67,0-1.12,0-1.12,0l-1,.56s-.08,1.75-.15,2.5A4.75,4.75,0,0,1,432,54a13.89,13.89,0,0,1-.26,1.6,2.62,2.62,0,0,1-1,1.46c-.68.48-1.5,2.78-1.72,3.49a15.65,15.65,0,0,1-1.57,2.87,15.56,15.56,0,0,0-1.38,2.83,3,3,0,0,0-.3,1.56,3.09,3.09,0,0,1-.23,1.23l.64.15c.3.07.22.29.64.29s.41.3.48.41-.07.45-.41.49a9.93,9.93,0,0,1-1.08.07c-.49,0-.53-.37-.94.15a1.52,1.52,0,0,1-1.26.56c-.41,0-1.42.11-1.46-.34a1.9,1.9,0,0,1,.26-1.26c.26-.41,1.35-1.57,1.35-2.53s.48-6.77,1.82-8.71a26.28,26.28,0,0,1,2.28-2.91s-.07-1.56-.15-2.22-.41-1.53-.41-2V51s-.3-.15-.3-1.64-.15-1.9-.15-3.54,0-4.91.15-5.61.3-.86.34-1.31a6.54,6.54,0,0,1,.56-2l.26-.42s.15-1.11.26-1.52a3.22,3.22,0,0,0,.15-1.41c0-1.12.19-4.47.22-5.66a10.41,10.41,0,0,1,1.72-4.24A5.47,5.47,0,0,1,433.09,22a8.24,8.24,0,0,1,1.12-.93A3.22,3.22,0,0,0,435.37,20a2.4,2.4,0,0,0,.29-1.82,1.87,1.87,0,0,1,.23-1.45A5.5,5.5,0,0,1,437,15.11c.56-.56.56-.64,1-.66a10,10,0,0,1,1.83,0c.3.08.9.68,1.76,1.2a3.7,3.7,0,0,1,1.3,1.26c.23.3-.07.41-.07.56a11.4,11.4,0,0,0,0,1.6.89.89,0,0,1-.45.86c-.18,0-.07.48,0,.74s.23.3.15.52a.42.42,0,0,1-.45.34c-.18,0-.33.15-.48.3s0-.08-.15.14a1.9,1.9,0,0,0-.3.79c0,.18-.33.37-.33.37a1.6,1.6,0,0,1,.3.63l0,.3a2.61,2.61,0,0,1,1.05-.3c.71-.07,1,.49,1.3.82a3.63,3.63,0,0,1,.49,1.23,4.62,4.62,0,0,1,1.16-1.56A1.6,1.6,0,0,1,447.2,24a6.93,6.93,0,0,1,2.35,1.59,1.28,1.28,0,0,1,.15,1.64,6.34,6.34,0,0,1-1.57,1.49,3.63,3.63,0,0,1-1.27.11.88.88,0,0,1-.6-.37,1.2,1.2,0,0,1-.48.78A3.34,3.34,0,0,1,444,30h-1.72c-.52,0-1.23-.93-1.23-.93a1.67,1.67,0,0,1-.6.56c-.33.15-.63.82-.89,1s-.49.15-.71.48-1,1-1.08,1.42-.15,1.11-.3,1.56a6.26,6.26,0,0,0-.15,1.93c0,.6,0,1.3,0,1.3a.35.35,0,0,1,.26.38c0,.33,0,1.23,0,1.34S442,45.11,442,48l-.3.3s.45,2.19.56,2.53.74,1.45,1.05,2a5.23,5.23,0,0,1,.37,2,8.31,8.31,0,0,0,.78,2.72,41.21,41.21,0,0,1,2,6.14c.11.93,1.86,4.72,2.5,4.91s.9.86,1.49,1S452.05,71,453.35,71s1.09,0,1.38.19S455,71.5,455,71.72Z"/><path class="cls-3" d="M39.83,79.56c0,14.14,77,13.79,84.7,13.79.24,0,6.37-2.75,3.88-9L101.58,16.58C64.76,42.89,41,60.92,39.83,79.56Z"/><path class="cls-3" d="M14.88,76c-1.6-23.84,29.5-48.36,58.84-72.8L4.38,30.68a7,7,0,0,0-3.9,9Z"/><path class="cls-3" d="M19.77,88.41,33.12,122.1a7,7,0,0,0,9,3.89l68.14-27C66.54,98.9,28.58,99.64,19.77,88.41Z"/></g></g></svg>